<svg width="115" height="76" viewBox="0 0 115 76" fill="none" xmlns="http://www.w3.org/2000/svg">
<g clip-path="url(#clip0_31673_253360)">
<path d="M5.69363 45.8822H-0.541016V19.6401H5.69363V45.8822Z" fill="white"/>
<path d="M31.6883 45.8822H25.4741L16.2948 29.5536V45.8822H10.0332V19.6401H16.2835L25.4616 35.9687V19.6401H31.6957L31.6883 45.8822Z" fill="white"/>
<path d="M35.6543 45.8839V19.6416H44.0061C46.1679 19.6076 48.3003 20.1513 50.187 21.2181C52.0049 22.2601 53.491 23.8063 54.4692 25.6746C55.5126 27.657 56.0479 29.8723 56.0277 32.1181V33.3247C56.0626 35.571 55.5437 37.7906 54.5178 39.783C53.5524 41.6473 52.0847 43.1965 50.2842 44.251C48.4314 45.3349 46.3247 45.8977 44.184 45.8818L35.6543 45.8839ZM41.9058 24.5257V41.0178H44.0785C45.8699 41.0178 47.2478 40.3716 48.2114 39.0802C49.174 37.7866 49.6571 35.8678 49.6607 33.3195V32.1841C49.6607 29.6485 49.1767 27.7379 48.2114 26.4518C47.2451 25.1657 45.8442 24.5236 44.0098 24.5236L41.9058 24.5257Z" fill="white"/>
<path d="M65.8913 45.8866H59.6602V19.6445H65.8913V45.8866Z" fill="white"/>
<path d="M86.4773 26.9885L81.1051 27.2473L78.3639 36.1102L76.8689 40.9983L75.3739 45.9022H68.6934L78.202 19.6401H84.0811L86.6345 26.6502L86.4773 26.9885Z" fill="white"/>
<path fill-rule="evenodd" clip-rule="evenodd" d="M87.569 26.2478C86.2852 26.2351 85.0096 26.4469 83.7974 26.8741C82.8223 27.2176 81.8882 27.67 81.0128 28.2221L80.9987 32.1498L79.5507 32.1445L79.5683 27.4271L79.8898 27.2102C80.9588 26.4934 82.1112 25.9149 83.321 25.4884C84.6905 25.0057 86.1327 24.7661 87.5831 24.7804L87.569 26.2478Z" fill="white"/>
<path d="M91.2923 45.3716C91.1503 45.0458 91.0248 44.7123 90.9191 44.3724C90.8147 44.0327 90.7349 43.6863 90.6762 43.3355C90.0484 44.0646 89.2833 44.6591 88.4243 45.0836C87.4774 45.5422 86.4365 45.7707 85.3874 45.7507C83.5005 45.7507 82.0008 45.2312 80.8907 44.1901C79.7794 43.1512 79.2243 41.7362 79.2267 39.9452C79.2267 38.1186 79.9507 36.7066 81.4 35.7096C82.848 34.7125 84.9743 34.2138 87.7766 34.2138H90.4333V32.3023C90.4333 31.365 90.1658 30.6381 89.6318 30.1217C89.0967 29.6054 88.307 29.3467 87.2614 29.3467C86.7263 29.3395 86.1936 29.4097 85.6784 29.555C85.2818 29.6606 84.9028 29.8251 84.5542 30.0431L84.2151 32.1338H80.277L80.2934 27.807C81.3108 27.1241 82.408 26.5731 83.5615 26.1667C84.8523 25.7122 86.2112 25.4861 87.5783 25.4996C89.9651 25.4996 91.9025 26.0913 93.3928 27.2738C94.882 28.4574 95.6259 30.1415 95.6259 32.3286V41.2407C95.6318 41.4943 95.6518 41.7477 95.6893 41.9991L97.2735 42.2138V45.3716H91.2923ZM86.7979 41.8639C87.5419 41.874 88.2765 41.6977 88.936 41.3507C89.5298 41.0492 90.0426 40.6072 90.431 40.0625V37.0879H87.7649C86.6594 37.0879 85.8216 37.3497 85.2536 37.8733C84.9826 38.1048 84.7655 38.3935 84.6176 38.7191C84.4698 39.0447 84.3946 39.3993 84.397 39.7577C84.3817 40.0473 84.4322 40.3368 84.5413 40.605C84.6505 40.8731 84.8171 41.1131 85.0307 41.3078C85.5306 41.7081 86.1607 41.9063 86.7979 41.8639ZM98.8987 42.2264L101.41 41.6859V29.5917L98.6324 29.0513V25.8735H106.604V41.6786L109.096 42.219V45.3716H98.8987V42.2264Z" fill="#EA5B0C"/>
<path fill-rule="evenodd" clip-rule="evenodd" d="M45.8905 35.1036L18.5083 50.0812L18.1699 49.4497L45.5532 34.471L45.8905 35.1036ZM70.2545 28.5072L53.5337 27.3855L53.5804 26.668L70.3026 27.7897L70.2545 28.5072Z" fill="white"/>
<path fill-rule="evenodd" clip-rule="evenodd" d="M45.4345 34.5331L53.2839 26.793L53.7808 27.3062L45.9304 35.0475L45.4345 34.5331Z" fill="white"/>
<path fill-rule="evenodd" clip-rule="evenodd" d="M53.25 26.836L62.6432 11.7358L63.244 12.1181L53.8514 27.2193L53.25 26.836Z" fill="white"/>
<path fill-rule="evenodd" clip-rule="evenodd" d="M53.256 27.2335L42.8066 12.5073L43.3823 12.0884L53.8336 26.8146L53.256 27.2335Z" fill="white"/>
<path d="M62.9342 15.4243C63.8484 15.4243 64.7261 15.0564 65.3727 14.4018C66.0193 13.7471 66.3831 12.8592 66.3831 11.9333C66.3831 11.0074 66.0193 10.1195 65.3727 9.46487C64.7261 8.81016 63.8484 8.44238 62.9342 8.44238C62.0189 8.44238 61.1412 8.81016 60.4946 9.46487C59.8469 10.1195 59.4843 11.0074 59.4843 11.9333C59.4843 12.8592 59.8469 13.7471 60.4946 14.4018C61.1412 15.0564 62.0189 15.4243 62.9342 15.4243Z" fill="white"/>
<path fill-rule="evenodd" clip-rule="evenodd" d="M62.9512 9.63554C62.3504 9.63554 61.7742 9.87712 61.3483 10.307C60.9246 10.737 60.6852 11.3202 60.6852 11.9282C60.6852 12.5363 60.9246 13.1195 61.3483 13.5495C61.7742 13.9794 62.3504 14.2209 62.9512 14.2209C63.552 14.2209 64.1282 13.9794 64.553 13.5495C64.9778 13.1195 65.216 12.5363 65.216 11.9282C65.216 11.3202 64.9778 10.737 64.553 10.307C64.1282 9.87712 63.552 9.63554 62.9512 9.63554ZM58.3184 11.9293C58.3184 10.6859 58.8065 9.49351 59.6761 8.61432C60.5433 7.73513 61.7226 7.24121 62.9512 7.24121C64.1798 7.24121 65.358 7.73513 66.2264 8.61432C67.0959 9.49351 67.5841 10.6859 67.5841 11.9293C67.5841 13.1726 67.0959 14.3652 66.2264 15.2443C65.358 16.1235 64.1798 16.6174 62.9512 16.6174C61.7226 16.6174 60.5433 16.1235 59.6761 15.2443C58.8065 14.3652 58.3184 13.1726 58.3184 11.9293Z" fill="white"/>
<path d="M70.2904 30.0901C70.7997 30.0901 71.2879 29.8856 71.6481 29.5216C72.0072 29.1577 72.2091 28.664 72.2091 28.1493C72.2091 27.6346 72.0072 27.1409 71.6481 26.777C71.2879 26.413 70.7997 26.2085 70.2904 26.2085C69.7835 26.2085 69.2953 26.413 68.9351 26.777C68.576 27.1409 68.3742 27.6346 68.3742 28.1493C68.3742 28.664 68.576 29.1577 68.9351 29.5216C69.2953 29.8856 69.7835 30.0901 70.2904 30.0901ZM18.3325 52.7786C18.7263 52.7859 19.1178 52.7139 19.4837 52.5666C19.8498 52.4191 20.1831 52.1994 20.4642 51.9202C20.7454 51.6409 20.9687 51.3079 21.121 50.9402C21.2736 50.5727 21.3521 50.1781 21.3521 49.7794C21.3521 49.3808 21.2736 48.9861 21.121 48.6185C20.9687 48.2509 20.7454 47.9178 20.4642 47.6385C20.1831 47.3593 19.8498 47.1395 19.4837 46.9921C19.1178 46.8448 18.7263 46.7727 18.3325 46.7802C17.5561 46.7949 16.8164 47.1173 16.2725 47.6781C15.7286 48.239 15.4238 48.9935 15.4238 49.7794C15.4238 50.5653 15.7286 51.3197 16.2725 51.8806C16.8164 52.4414 17.5561 52.7638 18.3325 52.7786Z" fill="#EA5B0C"/>
<path fill-rule="evenodd" clip-rule="evenodd" d="M61.2789 55.9033L45.4258 35.0101L45.9887 34.5723L61.8433 55.4655L61.2789 55.9033Z" fill="white"/>
<path d="M45.6863 37.0505C46.2832 37.0505 46.8552 36.8106 47.277 36.3838C47.6987 35.9569 47.9352 35.3781 47.9352 34.7745C47.9352 34.1709 47.6987 33.592 47.277 33.1651C46.8552 32.7383 46.2832 32.4985 45.6863 32.4985C45.0904 32.4985 44.5184 32.7383 44.0966 33.1651C43.6741 33.592 43.4375 34.1709 43.4375 34.7745C43.4375 35.3781 43.6741 35.9569 44.0966 36.3838C44.5184 36.8106 45.0904 37.0505 45.6863 37.0505Z" fill="white"/>
<path d="M61.5773 57.6199C62.0866 57.6199 62.5735 57.4154 62.9326 57.0514C63.2929 56.6875 63.4947 56.1938 63.4947 55.679C63.4947 55.1644 63.2929 54.6706 62.9326 54.3067C62.5735 53.9428 62.0866 53.7383 61.5773 53.7383C61.068 53.7383 60.581 53.9428 60.2219 54.3067C59.8617 54.6706 59.6598 55.1644 59.6598 55.679C59.6598 56.1938 59.8617 56.6875 60.2219 57.0514C60.581 57.4154 61.068 57.6199 61.5773 57.6199ZM43.1033 14.235C43.6122 14.235 44.0999 14.0305 44.4593 13.6667C44.8186 13.3027 45.0213 12.8091 45.0213 12.2943C45.0213 11.7795 44.8186 11.2859 44.4593 10.9219C44.0999 10.558 43.6122 10.3535 43.1033 10.3535C42.5945 10.3535 42.1068 10.558 41.7475 10.9219C41.3871 11.2859 41.1855 11.7795 41.1855 12.2943C41.1855 12.8091 41.3871 13.3027 41.7475 13.6667C42.1068 14.0305 42.5945 14.235 43.1033 14.235Z" fill="#EA5B0C"/>
<path fill-rule="evenodd" clip-rule="evenodd" d="M54.9094 28.4049C54.5499 28.769 54.0622 28.9735 53.5534 28.9735C53.1583 28.9735 52.776 28.8497 52.457 28.6241L49.6727 31.3687L49.582 30.4551L51.9591 28.1109C51.7492 27.7939 51.6356 27.4187 51.6356 27.0317C51.6356 26.5169 51.8372 26.0232 52.1966 25.6594C52.5569 25.2953 53.0446 25.0908 53.5534 25.0908C54.0622 25.0908 54.5499 25.2954 54.9094 25.6594C55.2696 26.0236 55.4713 26.5174 55.4713 27.0321C55.4713 27.547 55.2696 28.0408 54.9094 28.4049Z" fill="white"/>
<path d="M102.739 23.5609C103.133 23.5684 103.525 23.4963 103.89 23.3489C104.256 23.2016 104.591 22.9818 104.871 22.7025C105.152 22.4233 105.376 22.0901 105.528 21.7226C105.68 21.355 105.76 20.9603 105.76 20.5617C105.76 20.163 105.68 19.7684 105.528 19.4008C105.376 19.0332 105.152 18.7001 104.871 18.4208C104.591 18.1417 104.256 17.922 103.89 17.7745C103.525 17.6272 103.133 17.5552 102.739 17.5625C101.962 17.5771 101.223 17.8997 100.68 18.4605C100.135 19.0214 99.8301 19.7758 99.8301 20.5617C99.8301 21.3476 100.135 22.1021 100.68 22.663C101.223 23.2237 101.962 23.5462 102.739 23.5609Z" fill="#EA5B0C"/>
</g>
<defs>
<clipPath id="clip0_31673_253360">
<rect width="115" height="76" fill="white"/>
</clipPath>
</defs>
</svg>
